<?xml version="1.0" standalone="no"?>
<!DOCTYPE svg PUBLIC "-//W3C//DTD SVG 20010904//EN"
 "http://www.w3.org/TR/2001/REC-SVG-20010904/DTD/svg10.dtd">
<svg version="1.0" xmlns="http://www.w3.org/2000/svg"
 width="1337.000000pt" height="1338.000000pt" viewBox="0 0 1337.000000 1338.000000"
 preserveAspectRatio="xMidYMid meet">
<metadata>
Created by potrace 1.11, written by Peter Selinger 2001-2013
</metadata>
<g transform="translate(0.000000,1338.000000) scale(0.100000,-0.100000)"
fill="#000000" stroke="none">
<path d="M895 13373 c-66 -9 -188 -44 -258 -73 -174 -72 -357 -220 -457 -369
-57 -85 -123 -228 -152 -326 l-23 -80 -3 -5798 c-2 -5661 -2 -5801 17 -5891
41 -203 132 -368 285 -522 153 -153 318 -243 520 -285 89 -18 249 -19 5861
-19 5589 0 5773 1 5860 19 422 87 754 440 815 866 8 59 10 1600 8 5845 l-3
5765 -22 80 c-105 386 -382 663 -768 768 l-80 22 -5785 1 c-3182 1 -5798 -1
-5815 -3z m2740 -1827 c374 -60 691 -172 962 -337 257 -157 519 -420 652 -652
10 -18 35 -61 56 -97 37 -65 108 -212 103 -215 -22 -11 -296 -125 -303 -125
-6 0 -30 39 -54 88 -97 189 -253 398 -387 518 -145 129 -234 190 -401 274
-215 107 -420 173 -668 212 -187 30 -537 32 -720 4 -594 -90 -1088 -390 -1377
-836 -200 -308 -290 -642 -275 -1025 13 -334 118 -548 411 -840 341 -339 762
-570 1551 -848 372 -132 768 -295 1000 -412 450 -228 801 -522 1037 -871 107
-157 184 -354 214 -547 35 -221 15 -566 -46 -801 -61 -236 -177 -492 -297
-656 -119 -164 -117 -162 -213 -263 -325 -344 -793 -580 -1330 -669 -119 -20
-171 -22 -435 -22 -261 0 -318 2 -437 22 -727 116 -1275 461 -1600 1007 -51
87 -148 274 -148 288 0 5 38 22 208 93 l102 43 41 -81 c239 -475 597 -775
1129 -943 221 -69 428 -98 710 -97 388 0 666 62 985 217 639 310 1016 902
1015 1592 -1 343 -114 601 -390 887 -229 237 -577 463 -950 619 -47 20 -128
53 -180 75 -141 59 -358 144 -500 195 -159 58 -379 142 -450 172 -30 13 -131
56 -225 95 -610 258 -1082 624 -1329 1031 -154 255 -209 462 -209 789 0 323
57 594 184 871 317 695 970 1147 1812 1254 151 19 610 13 752 -9z m7355 -77
c80 -5 156 -12 169 -15 l24 -5 -7 -117 c-4 -64 -10 -139 -13 -166 l-6 -48 -56
5 c-148 15 -651 28 -858 23 -579 -16 -1045 -124 -1473 -341 -651 -331 -1128
-805 -1471 -1461 -217 -416 -371 -962 -419 -1491 -16 -175 -8 -708 14 -853 32
-219 48 -309 81 -451 267 -1142 945 -1991 1935 -2422 307 -134 677 -223 1065
-258 238 -21 1040 -10 1161 16 19 4 22 -1 27 -53 4 -31 9 -107 13 -168 l7
-112 -49 -6 c-232 -30 -933 -36 -1196 -11 -638 61 -1109 211 -1608 513 -730
440 -1269 1121 -1556 1966 -99 291 -175 627 -216 961 -19 153 -22 231 -22 520
0 292 3 366 22 526 87 717 297 1319 648 1855 183 281 504 632 739 810 28 21
75 57 105 80 247 188 614 384 945 505 286 105 703 185 1086 209 167 10 698 4
909 -11z"/>
</g>
</svg>
