<?xml version="1.0" standalone="no"?>
<!DOCTYPE svg PUBLIC "-//W3C//DTD SVG 1.1//EN" "http://www.w3.org/Graphics/SVG/1.1/DTD/svg11.dtd">
<svg width="100%" height="100%" viewBox="0 0 1742 232" version="1.1" xmlns="http://www.w3.org/2000/svg" xmlns:xlink="http://www.w3.org/1999/xlink" xml:space="preserve" style="fill-rule:evenodd;clip-rule:evenodd;stroke-linejoin:round;stroke-miterlimit:1.41421;">
    <g transform="matrix(3.90787,0,0,3.90787,-3069.73,-8673.95)">
        <path d="M837.342,2258.36C838.108,2260.06 839.233,2261.32 840.717,2262.13C842.2,2262.95 843.842,2263.36 845.642,2263.36C846.908,2263.36 848.083,2263.16 849.167,2262.76C850.25,2262.36 851.192,2261.8 851.992,2261.08C852.792,2260.37 853.417,2259.52 853.867,2258.53C854.317,2257.55 854.542,2256.46 854.542,2255.26C854.542,2254.22 854.267,2253.3 853.717,2252.48C853.167,2251.67 852.458,2250.94 851.592,2250.31C850.725,2249.68 849.767,2249.13 848.717,2248.68C847.667,2248.23 846.642,2247.83 845.642,2247.46C844.508,2247.06 843.358,2246.6 842.192,2246.08C841.025,2245.57 839.967,2244.94 839.017,2244.21C838.067,2243.47 837.283,2242.62 836.667,2241.66C836.05,2240.69 835.742,2239.56 835.742,2238.26C835.742,2236.86 836.008,2235.57 836.542,2234.38C837.075,2233.2 837.808,2232.18 838.742,2231.33C839.675,2230.48 840.775,2229.83 842.042,2229.36C843.308,2228.89 844.675,2228.66 846.142,2228.66C848.242,2228.66 850.167,2229.14 851.917,2230.11C853.667,2231.08 854.975,2232.56 855.842,2234.56L854.442,2235.16C853.675,2233.46 852.55,2232.2 851.067,2231.38C849.583,2230.57 847.942,2230.16 846.142,2230.16C844.875,2230.16 843.7,2230.36 842.617,2230.76C841.533,2231.16 840.592,2231.72 839.792,2232.43C838.992,2233.15 838.367,2234 837.917,2234.98C837.467,2235.97 837.242,2237.06 837.242,2238.26C837.242,2239.33 837.517,2240.26 838.067,2241.06C838.617,2241.86 839.325,2242.58 840.192,2243.21C841.058,2243.84 842.017,2244.39 843.067,2244.86C844.117,2245.33 845.142,2245.72 846.142,2246.06C847.275,2246.46 848.425,2246.92 849.592,2247.43C850.758,2247.95 851.817,2248.58 852.767,2249.31C853.717,2250.04 854.5,2250.89 855.117,2251.86C855.733,2252.83 856.042,2253.96 856.042,2255.26C856.042,2256.66 855.775,2257.95 855.242,2259.13C854.708,2260.32 853.975,2261.33 853.042,2262.18C852.108,2263.03 851.008,2263.69 849.742,2264.16C848.475,2264.62 847.108,2264.86 845.642,2264.86C843.508,2264.86 841.575,2264.38 839.842,2263.41C838.108,2262.44 836.808,2260.96 835.942,2258.96L837.342,2258.36Z" style="fill:white;fill-rule:nonzero;"/>
        <path d="M881.442,2264.26C880.875,2264.33 880.25,2264.37 879.567,2264.38C878.883,2264.4 878.275,2264.41 877.742,2264.41C874.908,2264.41 872.433,2263.9 870.317,2262.88C868.2,2261.87 866.433,2260.53 865.017,2258.88C863.6,2257.23 862.542,2255.35 861.842,2253.23C861.142,2251.12 860.792,2248.96 860.792,2246.76C860.792,2244.53 861.142,2242.35 861.842,2240.23C862.542,2238.12 863.6,2236.23 865.017,2234.58C866.433,2232.93 868.208,2231.6 870.342,2230.58C872.475,2229.57 874.958,2229.06 877.792,2229.06C878.325,2229.06 878.925,2229.07 879.592,2229.08C880.258,2229.1 880.875,2229.14 881.442,2229.21L881.342,2230.71C880.775,2230.64 880.158,2230.6 879.492,2230.58C878.825,2230.57 878.258,2230.56 877.792,2230.56C875.192,2230.56 872.925,2231.03 870.992,2231.96C869.058,2232.89 867.45,2234.12 866.167,2235.63C864.883,2237.15 863.917,2238.88 863.267,2240.81C862.617,2242.74 862.292,2244.72 862.292,2246.76C862.292,2248.79 862.617,2250.78 863.267,2252.71C863.917,2254.64 864.883,2256.37 866.167,2257.88C867.45,2259.4 869.058,2260.62 870.992,2261.53C872.925,2262.45 875.175,2262.91 877.742,2262.91C878.208,2262.91 878.783,2262.9 879.467,2262.88C880.15,2262.87 880.775,2262.83 881.342,2262.76L881.442,2264.26Z" style="fill:white;fill-rule:nonzero;"/>
        <rect x="887.442" y="2229.26" width="1.5" height="35" style="fill:white;fill-rule:nonzero;"/>
        <path d="M915.742,2264.26L915.742,2262.76L897.442,2262.76L897.442,2245.46L912.442,2245.46L912.442,2243.96L897.442,2243.96L897.442,2230.76L915.742,2230.76L915.742,2229.26L895.942,2229.26L895.942,2264.26L915.742,2264.26Z" style="fill:white;fill-rule:nonzero;"/>
        <path d="M923.492,2264.26L923.492,2233.31L942.842,2265.71L942.842,2229.26L941.342,2229.26L941.342,2260.21L921.992,2227.81L921.992,2264.26L923.492,2264.26Z" style="fill:white;fill-rule:nonzero;"/>
        <path d="M969.742,2264.26C969.175,2264.33 968.55,2264.37 967.867,2264.38C967.183,2264.4 966.575,2264.41 966.042,2264.41C963.208,2264.41 960.733,2263.9 958.617,2262.88C956.5,2261.87 954.733,2260.53 953.317,2258.88C951.9,2257.23 950.842,2255.35 950.142,2253.23C949.442,2251.12 949.092,2248.96 949.092,2246.76C949.092,2244.53 949.442,2242.35 950.142,2240.23C950.842,2238.12 951.9,2236.23 953.317,2234.58C954.733,2232.93 956.508,2231.6 958.642,2230.58C960.775,2229.57 963.258,2229.06 966.092,2229.06C966.625,2229.06 967.225,2229.07 967.892,2229.08C968.558,2229.1 969.175,2229.14 969.742,2229.21L969.642,2230.71C969.075,2230.64 968.458,2230.6 967.792,2230.58C967.125,2230.57 966.558,2230.56 966.092,2230.56C963.492,2230.56 961.225,2231.03 959.292,2231.96C957.358,2232.89 955.75,2234.12 954.467,2235.63C953.183,2237.15 952.217,2238.88 951.567,2240.81C950.917,2242.74 950.592,2244.72 950.592,2246.76C950.592,2248.79 950.917,2250.78 951.567,2252.71C952.217,2254.64 953.183,2256.37 954.467,2257.88C955.75,2259.4 957.358,2260.62 959.292,2261.53C961.225,2262.45 963.475,2262.91 966.042,2262.91C966.508,2262.91 967.083,2262.9 967.767,2262.88C968.45,2262.87 969.075,2262.83 969.642,2262.76L969.742,2264.26Z" style="fill:white;fill-rule:nonzero;"/>
        <path d="M995.542,2264.26L995.542,2262.76L977.242,2262.76L977.242,2245.46L992.242,2245.46L992.242,2243.96L977.242,2243.96L977.242,2230.76L995.542,2230.76L995.542,2229.26L975.742,2229.26L975.742,2264.26L995.542,2264.26Z" style="fill:white;fill-rule:nonzero;"/>
        <path d="M1019.09,2264.26C1018.52,2264.33 1017.9,2264.37 1017.22,2264.38C1016.53,2264.4 1015.93,2264.41 1015.39,2264.41C1012.56,2264.41 1010.08,2263.9 1007.97,2262.88C1005.85,2261.87 1004.08,2260.53 1002.67,2258.88C1001.25,2257.23 1000.19,2255.35 999.492,2253.23C998.792,2251.12 998.442,2248.96 998.442,2246.76C998.442,2244.53 998.792,2242.35 999.492,2240.23C1000.19,2238.12 1001.25,2236.23 1002.67,2234.58C1004.08,2232.93 1005.86,2231.6 1007.99,2230.58C1010.12,2229.57 1012.61,2229.06 1015.44,2229.06C1015.98,2229.06 1016.58,2229.07 1017.24,2229.08C1017.91,2229.1 1018.52,2229.14 1019.09,2229.21L1018.99,2230.71C1018.43,2230.64 1017.81,2230.6 1017.14,2230.58C1016.48,2230.57 1015.91,2230.56 1015.44,2230.56C1012.84,2230.56 1010.58,2231.03 1008.64,2231.96C1006.71,2232.89 1005.1,2234.12 1003.82,2235.63C1002.53,2237.15 1001.57,2238.88 1000.92,2240.81C1000.27,2242.74 999.942,2244.72 999.942,2246.76C999.942,2248.79 1000.27,2250.78 1000.92,2252.71C1001.57,2254.64 1002.53,2256.37 1003.82,2257.88C1005.1,2259.4 1006.71,2260.62 1008.64,2261.53C1010.58,2262.45 1012.83,2262.91 1015.39,2262.91C1015.86,2262.91 1016.43,2262.9 1017.12,2262.88C1017.8,2262.87 1018.43,2262.83 1018.99,2262.76L1019.09,2264.26Z" style="fill:white;fill-rule:nonzero;"/>
        <path d="M1021.09,2246.76C1021.09,2244.29 1021.56,2241.97 1022.49,2239.78C1023.43,2237.6 1024.71,2235.7 1026.34,2234.08C1027.97,2232.47 1029.88,2231.18 1032.07,2230.23C1034.25,2229.28 1036.58,2228.81 1039.04,2228.81C1041.51,2228.81 1043.83,2229.28 1046.02,2230.23C1048.2,2231.18 1050.1,2232.47 1051.72,2234.08C1053.33,2235.7 1054.62,2237.6 1055.57,2239.78C1056.52,2241.97 1056.99,2244.29 1056.99,2246.76C1056.99,2249.22 1056.52,2251.55 1055.57,2253.73C1054.62,2255.92 1053.33,2257.83 1051.72,2259.46C1050.1,2261.09 1048.2,2262.38 1046.02,2263.31C1043.83,2264.24 1041.51,2264.71 1039.04,2264.71C1036.58,2264.71 1034.25,2264.24 1032.07,2263.31C1029.88,2262.38 1027.97,2261.09 1026.34,2259.46C1024.71,2257.83 1023.43,2255.92 1022.49,2253.73C1021.56,2251.55 1021.09,2249.22 1021.09,2246.76ZM1022.59,2246.76C1022.59,2249.03 1023.02,2251.16 1023.89,2253.16C1024.76,2255.16 1025.93,2256.9 1027.42,2258.38C1028.9,2259.87 1030.64,2261.04 1032.64,2261.91C1034.64,2262.78 1036.78,2263.21 1039.04,2263.21C1041.31,2263.21 1043.44,2262.78 1045.44,2261.91C1047.44,2261.04 1049.18,2259.87 1050.67,2258.38C1052.15,2256.9 1053.33,2255.16 1054.19,2253.16C1055.06,2251.16 1055.49,2249.03 1055.49,2246.76C1055.49,2244.49 1055.06,2242.36 1054.19,2240.36C1053.33,2238.36 1052.15,2236.62 1050.67,2235.13C1049.18,2233.65 1047.44,2232.47 1045.44,2231.61C1043.44,2230.74 1041.31,2230.31 1039.04,2230.31C1036.78,2230.31 1034.64,2230.74 1032.64,2231.61C1030.64,2232.47 1028.9,2233.65 1027.42,2235.13C1025.93,2236.62 1024.76,2238.36 1023.89,2240.36C1023.02,2242.36 1022.59,2244.49 1022.59,2246.76Z" style="fill:white;fill-rule:nonzero;"/>
        <path d="M1064.49,2264.26L1064.49,2233.31L1083.84,2265.71L1083.84,2229.26L1082.34,2229.26L1082.34,2260.21L1062.99,2227.81L1062.99,2264.26L1064.49,2264.26Z" style="fill:white;fill-rule:nonzero;"/>
        <path d="M1092.34,2264.26L1092.34,2233.31L1111.69,2265.71L1111.69,2229.26L1110.19,2229.26L1110.19,2260.21L1090.84,2227.81L1090.84,2264.26L1092.34,2264.26Z" style="fill:white;fill-rule:nonzero;"/>
        <path d="M1138.49,2264.26L1138.49,2262.76L1120.19,2262.76L1120.19,2245.46L1135.19,2245.46L1135.19,2243.96L1120.19,2243.96L1120.19,2230.76L1138.49,2230.76L1138.49,2229.26L1118.69,2229.26L1118.69,2264.26L1138.49,2264.26Z" style="fill:white;fill-rule:nonzero;"/>
        <path d="M1162.04,2264.26C1161.48,2264.33 1160.85,2264.37 1160.17,2264.38C1159.48,2264.4 1158.88,2264.41 1158.34,2264.41C1155.51,2264.41 1153.03,2263.9 1150.92,2262.88C1148.8,2261.87 1147.03,2260.53 1145.62,2258.88C1144.2,2257.23 1143.14,2255.35 1142.44,2253.23C1141.74,2251.12 1141.39,2248.96 1141.39,2246.76C1141.39,2244.53 1141.74,2242.35 1142.44,2240.23C1143.14,2238.12 1144.2,2236.23 1145.62,2234.58C1147.03,2232.93 1148.81,2231.6 1150.94,2230.58C1153.08,2229.57 1155.56,2229.06 1158.39,2229.06C1158.92,2229.06 1159.53,2229.07 1160.19,2229.08C1160.86,2229.1 1161.48,2229.14 1162.04,2229.21L1161.94,2230.71C1161.38,2230.64 1160.76,2230.6 1160.09,2230.58C1159.42,2230.57 1158.86,2230.56 1158.39,2230.56C1155.79,2230.56 1153.53,2231.03 1151.59,2231.96C1149.66,2232.89 1148.05,2234.12 1146.77,2235.63C1145.48,2237.15 1144.52,2238.88 1143.87,2240.81C1143.22,2242.74 1142.89,2244.72 1142.89,2246.76C1142.89,2248.79 1143.22,2250.78 1143.87,2252.71C1144.52,2254.64 1145.48,2256.37 1146.77,2257.88C1148.05,2259.4 1149.66,2260.62 1151.59,2261.53C1153.53,2262.45 1155.78,2262.91 1158.34,2262.91C1158.81,2262.91 1159.38,2262.9 1160.07,2262.88C1160.75,2262.87 1161.38,2262.83 1161.94,2262.76L1162.04,2264.26Z" style="fill:white;fill-rule:nonzero;"/>
        <path d="M1179.44,2264.26L1179.44,2230.76L1190.34,2230.76L1190.34,2229.26L1167.04,2229.26L1167.04,2230.76L1177.94,2230.76L1177.94,2264.26L1179.44,2264.26Z" style="fill:white;fill-rule:nonzero;"/>
    </g>
    <path d="M137.104,52.146C137.104,43.998 130.489,37.383 122.34,37.383L14.763,37.383C6.615,37.383 0,43.998 0,52.146L0,159.723C0,167.871 6.615,174.486 14.763,174.486L122.34,174.486C130.489,174.486 137.104,167.871 137.104,159.723L137.104,52.146ZM83.169,96.023L81.412,99.159L80.659,99.912L88.313,99.912C95.088,99.912 100.064,99.891 103.243,99.85C106.421,99.808 109.642,99.619 112.904,99.285C116.166,98.95 118.257,98.448 119.177,97.779C118.675,100.874 117.713,103.53 116.291,105.746C114.869,107.963 113.259,109.678 111.461,110.89C109.663,112.103 107.383,113.044 104.623,113.713C101.863,114.382 99.291,114.822 96.907,115.031C94.523,115.24 91.658,115.344 88.313,115.344L80.91,115.344L81.914,116.85C85.092,122.203 87.915,126.992 90.383,131.216C92.85,135.44 95.046,138.953 96.97,141.755C98.893,144.557 100.399,146.209 101.486,146.711C98.643,147.714 96.05,148.216 93.708,148.216C91.366,148.216 89.107,147.714 86.932,146.711C84.758,145.707 82.959,144.619 81.538,143.448C80.116,142.277 78.485,140.333 76.644,137.614C74.804,134.896 73.445,132.805 72.567,131.341C71.689,129.877 70.288,127.347 68.364,123.751L67.235,120.739L65.98,123.751C63.805,127.514 61.777,131.007 59.895,134.227C58.013,137.447 56.403,140.312 55.064,142.821C53.726,145.33 52.681,147.526 51.928,149.408C51.175,151.29 50.799,152.775 50.799,153.862L50.799,154.364C45.864,150.349 43.396,145.54 43.396,139.935C43.396,137.426 43.961,134.561 45.09,131.341C46.219,128.121 47.369,125.423 48.54,123.249C49.711,121.074 51.426,118.105 53.684,114.341C50.422,114.173 45.78,114.09 39.758,114.09C27.211,114.09 19.934,114.843 17.927,116.348C18.345,113.922 19.077,111.769 20.123,109.887C21.168,108.005 22.276,106.457 23.447,105.244C24.618,104.032 26.229,103.007 28.278,102.171C30.327,101.334 32.125,100.707 33.673,100.289C35.22,99.87 37.353,99.557 40.071,99.348C42.79,99.139 44.944,99.013 46.533,98.971C48.122,98.929 50.422,98.909 53.433,98.909L55.19,98.909L54.688,98.156C44.4,79.42 37.792,69.466 34.865,68.295C37.792,67.291 40.301,66.79 42.393,66.79C45.069,66.79 47.578,67.375 49.92,68.546C52.262,69.717 54.542,71.599 56.758,74.192C58.975,76.785 60.71,79.022 61.965,80.904C63.22,82.786 64.976,85.609 67.235,89.373L68.364,92.133L69.367,89.373C79.99,72.059 85.301,61.604 85.301,58.007L85.301,57.505C90.236,61.52 92.704,66.246 92.704,71.683C92.704,74.025 92.16,76.743 91.073,79.838C89.985,82.933 88.919,85.484 87.873,87.491C86.828,89.499 85.26,92.343 83.169,96.023Z" style="fill:white;"/>
</svg>
