<?xml version="1.0" encoding="UTF-8" standalone="no"?>
<svg
   xmlns:dc="http://purl.org/dc/elements/1.1/"
   xmlns:cc="http://creativecommons.org/ns#"
   xmlns:rdf="http://www.w3.org/1999/02/22-rdf-syntax-ns#"
   xmlns:svg="http://www.w3.org/2000/svg"
   xmlns="http://www.w3.org/2000/svg"
   xmlns:sodipodi="http://sodipodi.sourceforge.net/DTD/sodipodi-0.dtd"
   xmlns:inkscape="http://www.inkscape.org/namespaces/inkscape"
   width="1670.842"
   height="1670.84"
   viewBox="-6507601 0 0 1701"
   version="1.1"
   xml:space="preserve"
   style="clip-rule:evenodd;fill-rule:evenodd;stroke-linejoin:round;stroke-miterlimit:1.41420996"
   id="svg2"
   inkscape:version="0.91 r13725"
   sodipodi:docname="sc-tile-logo-crop-nobg.svg"><metadata
     id="metadata58"><rdf:RDF><cc:Work
         rdf:about=""><dc:format>image/svg+xml</dc:format><dc:type
           rdf:resource="http://purl.org/dc/dcmitype/StillImage" /><dc:title /></cc:Work></rdf:RDF></metadata><sodipodi:namedview
     pagecolor="#ffffff"
     bordercolor="#666666"
     borderopacity="1"
     objecttolerance="10"
     gridtolerance="10"
     guidetolerance="10"
     inkscape:pageopacity="0"
     inkscape:pageshadow="2"
     inkscape:window-width="1920"
     inkscape:window-height="1018"
     id="namedview56"
     showgrid="false"
     inkscape:zoom="0.27748384"
     inkscape:cx="202.49709"
     inkscape:cy="1097.1297"
     inkscape:window-x="-8"
     inkscape:window-y="-8"
     inkscape:window-maximized="1"
     inkscape:current-layer="g4" /><g
     transform="matrix(2.09981,0,0,2.09981,-1853.69,-2877.72)"
     id="g4"><path
       d="m 1184.84,1563.8 20.1,-7.1 87.72,85.16 -6.9,22.86"
       style="fill:#075281"
       id="path10"
       inkscape:connector-curvature="0" /><path
       d="m 1609.77,2166.07 -37.47,0 -407.38,-400.41 c -28.73,-9.26 -54.09,-19.02 -76.35,-29.12 -333.526,-151.28 26.57,-379.02 97.58,-171.79 l 99.61,99.97 c -5.34,78.31 12.97,154.24 50.86,228.21 l 273.15,273.14 z"
       style="fill:url(#_Linear1)"
       id="path12"
       inkscape:connector-curvature="0" /><path
       d="m 1678.5,2066.8 0,18.8 -130.42,-130.42 -1.23,-20.03 131.65,131.65 z"
       style="fill:#106ba4"
       id="path14"
       inkscape:connector-curvature="0" /><path
       d="m 1576.76,2166.07 -370.02,0 -242.506,-242.5 c 156.956,63.05 272.186,16.04 214.906,-155.12 l 397.62,397.62 z"
       style="fill:url(#_Linear2)"
       id="path16"
       inkscape:connector-curvature="0" /><path
       d="m 956.71,1876.04 c -1.193,18.85 5.149,35.75 23.34,49.58 l 55.32,29.58 -78.66,-79.16 z"
       style="fill:#0064a3"
       id="path18"
       inkscape:connector-curvature="0" /><path
       d="m 973.21,1682.04 c 79.83,18.93 147.53,51.19 205.49,94.18 19.6,57.1 18.04,92.58 4.17,115.48 L 973.21,1682.04 Z"
       style="fill:url(#_Linear3)"
       id="path20"
       inkscape:connector-curvature="0" /><path
       d="m 1288.41,1626.86 -110.23,-110.22 23.32,37 89.48,89.48 -2.57,-16.26 z"
       style="fill:#0064a3"
       id="path22"
       inkscape:connector-curvature="0" /><path
       d="m 1678.5,1619.81 0,455.09 -144.93,-132.77 c -353.82,34.17 -312.87,-484.27 3.61,-452.11 l 25.29,15.65 116.03,114.14 z"
       style="fill:url(#_Linear4)"
       id="path24"
       inkscape:connector-curvature="0" /><g
       transform="matrix(13.4176,0,0,13.4176,-14534.8,-22050.7)"
       id="g26"><path
         d="m 1154.56,1783.23 c 0.77,1.7 1.89,2.96 3.38,3.78 1.48,0.81 3.12,1.22 4.92,1.22 1.27,0 2.44,-0.2 3.53,-0.6 1.08,-0.4 2.02,-0.96 2.82,-1.67 0.8,-0.72 1.43,-1.57 1.88,-2.55 0.45,-0.99 0.67,-2.08 0.67,-3.28 0,-1.03 -0.27,-1.96 -0.82,-2.77 -0.55,-0.82 -1.26,-1.54 -2.13,-2.18 -0.87,-0.63 -1.82,-1.17 -2.87,-1.62 -1.05,-0.45 -2.08,-0.86 -3.08,-1.23 -1.13,-0.4 -2.28,-0.86 -3.45,-1.37 -1.16,-0.52 -2.22,-1.14 -3.17,-1.88 -0.95,-0.73 -1.74,-1.58 -2.35,-2.55 -0.62,-0.96 -0.93,-2.1 -0.93,-3.4 0,-1.4 0.27,-2.69 0.8,-3.87 0.54,-1.19 1.27,-2.2 2.2,-3.05 0.93,-0.85 2.04,-1.51 3.3,-1.98 1.27,-0.46 2.63,-0.7 4.1,-0.7 2.1,0 4.03,0.49 5.78,1.45 1.75,0.97 3.05,2.45 3.92,4.45 l -1.4,0.6 c -0.77,-1.7 -1.89,-2.96 -3.37,-3.77 -1.49,-0.82 -3.13,-1.23 -4.93,-1.23 -1.26,0 -2.44,0.2 -3.52,0.6 -1.09,0.4 -2.03,0.96 -2.83,1.68 -0.8,0.71 -1.42,1.56 -1.87,2.55 -0.45,0.98 -0.68,2.07 -0.68,3.27 0,1.07 0.28,2 0.83,2.8 0.55,0.8 1.26,1.52 2.12,2.15 0.87,0.64 1.83,1.19 2.88,1.65 1.05,0.47 2.07,0.87 3.07,1.2 1.14,0.4 2.28,0.86 3.45,1.38 1.17,0.51 2.23,1.14 3.18,1.87 0.95,0.73 1.73,1.59 2.35,2.55 0.61,0.97 0.92,2.1 0.92,3.4 0,1.4 -0.26,2.69 -0.8,3.88 -0.53,1.18 -1.27,2.2 -2.2,3.05 -0.93,0.85 -2.03,1.51 -3.3,1.97 -1.27,0.47 -2.63,0.7 -4.1,0.7 -2.13,0 -4.06,-0.48 -5.8,-1.45 -1.73,-0.96 -3.03,-2.45 -3.9,-4.45 l 1.4,-0.6 z"
         style="fill:#ffffff;fill-rule:nonzero"
         id="path28"
         inkscape:connector-curvature="0" /><path
         d="m 1198.66,1789.13 c -0.56,0.07 -1.19,0.11 -1.87,0.13 -0.69,0.01 -1.29,0.02 -1.83,0.02 -2.83,0 -5.31,-0.51 -7.42,-1.52 -2.12,-1.02 -3.89,-2.35 -5.3,-4 -1.42,-1.65 -2.48,-3.54 -3.18,-5.65 -0.7,-2.12 -1.05,-4.28 -1.05,-6.48 0,-2.23 0.35,-4.41 1.05,-6.52 0.7,-2.12 1.76,-4 3.18,-5.65 1.41,-1.65 3.19,-2.99 5.32,-4 2.13,-1.02 4.62,-1.53 7.45,-1.53 0.54,0 1.13,0.01 1.8,0.03 0.67,0.01 1.29,0.06 1.85,0.12 l -0.1,1.5 c -0.56,-0.06 -1.18,-0.11 -1.85,-0.12 -0.66,-0.02 -1.23,-0.03 -1.7,-0.03 -2.6,0 -4.87,0.47 -6.8,1.4 -1.93,0.94 -3.54,2.16 -4.82,3.68 -1.29,1.51 -2.25,3.24 -2.9,5.17 -0.65,1.94 -0.98,3.92 -0.98,5.95 0,2.03 0.33,4.02 0.98,5.95 0.65,1.94 1.61,3.66 2.9,5.18 1.28,1.51 2.89,2.73 4.82,3.65 1.93,0.91 4.18,1.37 6.75,1.37 0.47,0 1.04,-0.01 1.73,-0.02 0.68,-0.02 1.31,-0.06 1.87,-0.13 l 0.1,1.5 z"
         style="fill:#ffffff;fill-rule:nonzero"
         id="path30"
         inkscape:connector-curvature="0" /></g><path
       d="m 1678.5,1614.8 0,21.8 -131.42,-131.42 1.77,-20.03 129.65,129.65 z"
       style="fill:#106ba4"
       id="path32"
       inkscape:connector-curvature="0" /></g><defs
     id="defs34"><linearGradient
       id="_Linear1"
       x1="0"
       y1="0"
       x2="1"
       y2="0"
       gradientUnits="userSpaceOnUse"
       gradientTransform="matrix(-194.32,216.308,-216.849,-193.834,1091.36,1567.86)"><stop
         offset="0%"
         style="stop-color:rgb(0,95,154);stop-opacity:1"
         id="stop37" /><stop
         offset="100%"
         style="stop-color:rgb(0,95,154);stop-opacity:0"
         id="stop39" /></linearGradient><linearGradient
       id="_Linear2"
       x1="0"
       y1="0"
       x2="1"
       y2="0"
       gradientUnits="userSpaceOnUse"
       gradientTransform="matrix(-246.897,202.257,-215.68,-231.531,1252.07,1925.84)"><stop
         offset="0%"
         style="stop-color:rgb(0,90,146);stop-opacity:1"
         id="stop42" /><stop
         offset="100%"
         style="stop-color:rgb(0,90,146);stop-opacity:0"
         id="stop44" /></linearGradient><linearGradient
       id="_Linear3"
       x1="0"
       y1="0"
       x2="1"
       y2="0"
       gradientUnits="userSpaceOnUse"
       gradientTransform="matrix(153.05,104.074,-104.074,153.05,1106.46,1784.19)"><stop
         offset="0%"
         style="stop-color:rgb(0,100,163);stop-opacity:1"
         id="stop47" /><stop
         offset="100%"
         style="stop-color:rgb(0,100,163);stop-opacity:0"
         id="stop49" /></linearGradient><linearGradient
       id="_Linear4"
       x1="0"
       y1="0"
       x2="1"
       y2="0"
       gradientUnits="userSpaceOnUse"
       gradientTransform="matrix(-200.809,337.732,-326.383,-207.792,1521.92,1597.42)"><stop
         offset="0%"
         style="stop-color:rgb(0,82,134);stop-opacity:1"
         id="stop52" /><stop
         offset="100%"
         style="stop-color:rgb(0,82,134);stop-opacity:0"
         id="stop54" /></linearGradient></defs></svg>